#!OML:ASF I:\Actors\actors\Patient Classification 2\Patient 1\Session 1\actor1.ASF
:FULLY-SPECIFIED
:DEGREES
327
root -0.580738 18.7292 5.48899 2.88646 -3.67526 -1.34154
lowerback 7.43828 1.84913 -1.52919
upperback 0.373251 2.34285 0.28959
thorax -3.85684 1.19092 0.907504
lowerneck -15.615 -3.49567 -2.67964
upperneck 15.5055 -5.19005 5.57939
head 7.56668 -2.11071 1.69489
rclavicle -1.76421e-014 -5.76476e-015
rhumerus -39.2601 23.0488 -86.8418
rradius 68.2116
rwrist 0.69872
rhand -12.9254 -16.5089
rfingers 7.12502
rthumb 13.1651 -46.0733
lclavicle -1.76421e-014 -5.76476e-015
lhumerus -32.807 -28.3845 91.1173
lradius 66.0536
lwrist 22.0779
lhand -19.9417 -49.3116
lfingers 7.12502
lthumb 6.39613 -19.4282
rfemur 0 0 0
rtibia 0
rfoot 0 0
rtoes 0
lfemur -5.53897 -4.09863 -13.2801
ltibia 21.6633
lfoot -24.077 17.3946
ltoes -53.9128
328
root -0.583827 18.729 5.49315 2.88269 -3.6446 -1.35414
lowerback 7.38893 1.86232 -1.61127
upperback 0.291748 2.35577 0.330084
thorax -3.91922 1.20009 0.993889
lowerneck -15.6918 -3.52847 -2.59419
upperneck 15.2688 -5.20609 5.39492
head 7.49526 -2.13331 1.61755
rclavicle 2.05991e-014 2.98177e-015
rhumerus -40.2928 24.1225 -87.0312
rradius 71.8839
rwrist -1.09773
rhand -12.8054 -18.2183
rfingers 7.12502
rthumb 13.2808 -47.7751
lclavicle 2.05991e-014 2.98177e-015
lhumerus -33.7447 -29.8489 91.1195
lradius 69.5722
lwrist 24.0353
lhand -20.2285 -48.0712
lfingers 7.12502
lthumb 6.1192 -18.1796
rfemur 0 0 0
rtibia 0
rfoot 0 0
rtoes 0
lfemur -5.51543 -4.1369 -13.259
ltibia 21.6352
lfoot -24.0591 17.432
ltoes -53.9646
329
root -0.586344 18.7286 5.49768 2.85309 -3.57882 -1.41986
lowerback 6.95905 1.81328 -1.79896
upperback 0.478534 2.28954 0.477901
thorax -3.49622 1.16789 1.27614
lowerneck -15.9127 -3.50729 -2.51451
upperneck 14.9508 -5.13839 5.19619
head 7.41846 -2.11636 1.54454
rclavicle -2.12451e-014 8.15017e-015
rhumerus -40.6519 25.4016 -86.9317
rradius 75.3281
rwrist -3.04623
rhand -14.1178 -19.7038
rfingers 7.12502
rthumb 12.0156 -49.3389
lclavicle -2.12451e-014 8.15017e-015
lhumerus -34.1567 -30.9304 90.8792
lradius 72.9718
lwrist 26.1364
lhand -20.7096 -46.7782
lfingers 7.12502
lthumb 5.65471 -16.8737
rfemur 0 0 0
rtibia 0
rfoot 0 0
rtoes 0
lfemur -5.4622 -4.16639 -13.1774
ltibia 21.5967
lfoot -24.0503 17.3912
ltoes -53.9915
330
root -0.589271 18.7282 5.50212 2.81109 -3.5336 -1.46185
lowerback 7.27008 1.87224 -1.60722
upperback 0.172082 2.37164 0.34261
thorax -3.97763 1.20929 1.00434
lowerneck -15.9836 -3.59082 -2.41207
upperneck 15.1 -5.29047 5.22871
head 7.48442 -2.17628 1.51992
rclavicle 7.57867e-015 5.56597e-015
rhumerus -41.7627 26.0062 -87.3323
rradius 78.7031
rwrist -4.73565
rhand -16.6648 -20.4537
rfingers 7.12502
rthumb 9.55881 -50.2169
lclavicle 7.57867e-015 5.56597e-015
lhumerus -35.3326 -32.3217 90.8153
lradius 76.3625
lwrist 28.2392
lhand -21.3086 -45.5914
lfingers 7.12502
lthumb 5.07637 -15.6722
rfemur 0 0 0
rtibia 0
rfoot 0 0
rtoes 0
lfemur -5.39467 -4.21034 -13.1252
ltibia 21.567
lfoot -24.0548 17.3693
ltoes -53.9921
331
root -0.591787 18.7266 5.50592 2.76099 -3.50545 -1.45734
lowerback 7.26753 1.90361 -1.61584
upperback 0.0812571 2.41082 0.302897
thorax -4.07036 1.22963 0.962078
lowerneck -15.9976 -3.6124 -2.40487
upperneck 14.9623 -5.33286 5.3284
head 7.44642 -2.18882 1.54654
rclavicle 2.50966e-015 -9.54166e-015
rhumerus -42.3548 26.7098 -87.423
rradius 81.8946
rwrist -6.15294
rhand -17.0911 -21.6561
rfingers 7.12502
rthumb 9.14744 -51.4377
lclavicle 2.50966e-015 -9.54166e-015
lhumerus -35.9762 -33.3484 90.593
lradius 79.5661
lwrist 30.0926
lhand -21.8409 -44.6597
lfingers 7.12502
lthumb 4.56239 -14.7288
rfemur 0 0 0
rtibia 0
rfoot 0 0
rtoes 0
lfemur -5.32319 -4.29927 -13.1338
ltibia 21.5576
lfoot -24.0616 17.4269
ltoes -53.9954
332
root -0.591808 18.7242 5.50967 2.7325 -3.41856 -1.47385
lowerback 7.1043 1.88622 -1.66831
upperback 0.0707084 2.38731 0.328146
thorax -3.99221 1.21905 1.02535
lowerneck -15.9041 -3.58891 -2.48155
upperneck 14.6225 -5.3047 5.54292
head 7.32655 -2.16732 1.63411
rclavicle -1.32192e-014 -9.54166e-015
rhumerus -42.6519 27.405 -87.3486
rradius 84.9415
rwrist -7.3872
rhand -14.5125 -24.0486
rfingers 7.12502
rthumb 11.6349 -53.7056
lclavicle -1.32192e-014 -9.54166e-015
lhumerus -36.3673 -34.0841 90.3114
lradius 82.5795
lwrist 31.5091
lhand -22.229 -44.0296
lfingers 7.12502
lthumb 4.18768 -14.091
rfemur 0 0 0
rtibia 0
rfoot 0 0
rtoes 0
lfemur -5.28255 -4.43805 -13.1204
ltibia 21.5506
lfoot -24.1029 17.4597
ltoes -53.9626
333
root -0.590111 18.7231 5.51344 2.73459 -3.26276 -1.49228
lowerback 6.94124 1.82391 -1.69104
upperback 0.0256954 2.30586 0.340357
thorax -3.94614 1.17942 1.06377
lowerneck -15.8729 -3.55191 -2.47074
upperneck 14.408 -5.26211 5.63607
head 7.25192 -2.14215 1.66823
rclavicle -1.84124e-014 1.21259e-014
rhumerus -42.8976 27.9837 -87.3274
rradius 87.8976
rwrist -8.53013
rhand -16.3554 -25.4644
rfingers 7.12502
rthumb 9.85731 -55.2137
lclavicle -1.84124e-014 1.21259e-014
lhumerus -36.7217 -34.6621 89.9982
lradius 85.4532
lwrist 32.5665
lhand -22.694 -43.3058
lfingers 7.12502
lthumb 3.73857 -13.3588
rfemur 0 0 0
rtibia 0
rfoot 0 0
rtoes 0
lfemur -5.29887 -4.50941 -13.0896
ltibia 21.5399
lfoot -24.0956 17.39
ltoes -53.9552
334
root -0.588554 18.7222 5.51732 2.72516 -3.17049 -1.4685
lowerback 6.79231 1.78137 -1.74075
upperback -0.00796872 2.24727 0.32378
thorax -3.89675 1.15122 1.08466
lowerneck -15.907 -3.51252 -2.37088
upperneck 14.2645 -5.21345 5.58129
head 7.20474 -2.12032 1.6393
rclavicle -1.04362e-015 -6.55989e-015
rhumerus -43.0786 28.4353 -87.3122
rradius 90.7939
rwrist -9.55662
rhand -14.3753 -27.588
rfingers 7.12502
rthumb 11.7672 -57.2374
lclavicle -1.04362e-015 -6.55989e-015
lhumerus -36.9167 -35.1347 89.6017
lradius 88.2974
lwrist 33.584
lhand -23.2622 -42.2272
lfingers 7.12502
lthumb 3.18991 -12.2713
rfemur 0 0 0
rtibia 0
rfoot 0 0
rtoes 0
lfemur -5.29916 -4.44189 -13.1022
ltibia 21.5318
lfoot -24.0329 17.2697
ltoes -54.0048
335
root -0.587288 18.7206 5.52153 2.68048 -3.19183 -1.4516
lowerback 6.66689 1.79507 -1.80468
upperback -0.000695559 2.26286 0.320635
thorax -3.82168 1.15969 1.1197
lowerneck -15.9126 -3.43847 -2.30252
upperneck 14.0211 -5.11592 5.58829
head 7.12093 -2.0735 1.64158
rclavicle 8.82107e-015 -1.23246e-014
rhumerus -43.088 28.7615 -87.191
rradius 93.6012
rwrist -10.453
rhand -17.7413 -27.2463
rfingers 7.12502
rthumb 8.52005 -57.0544
lclavicle 8.82107e-015 -1.23246e-014
lhumerus -36.8902 -35.4889 89.1584
lradius 91.0411
lwrist 34.6793
lhand -23.7071 -41.2566
lfingers 7.12502
lthumb 2.76025 -11.2947
rfemur 0 0 0
rtibia 0
rfoot 0 0
rtoes 0
lfemur -5.22009 -4.34418 -13.1213
ltibia 21.5187
lfoot -24.0295 17.1606
ltoes -53.9628
336
root -0.586165 18.719 5.52537 2.63841 -3.21076 -1.46651
lowerback 6.5482 1.81317 -1.86519
upperback 0.00914306 2.28557 0.341362
thorax -3.74889 1.17181 1.17664
lowerneck -15.9514 -3.40354 -2.24241
upperneck 13.8275 -5.06937 5.57861
head 7.061 -2.0516 1.63357
rclavicle -1.34925e-014 1.19271e-015
rhumerus -43.0029 29.0518 -87.0855
rradius 96.3229
rwrist -11.5541
rhand -19.0143 -27.5328
rfingers 7.12502
rthumb 7.29132 -57.3872
lclavicle -1.34925e-014 1.19271e-015
lhumerus -36.7515 -35.7533 88.715
lradius 93.5541
lwrist 35.5984
lhand -24.0913 -40.711
lfingers 7.12502
lthumb 2.38921 -10.7446
rfemur 0 0 0
rtibia 0
rfoot 0 0
rtoes 0
lfemur -5.13407 -4.34352 -13.1137
ltibia 21.4962
lfoot -24.0527 17.1472
ltoes -53.9134
337
root -0.58401 18.7176 5.52868 2.66022 -3.07034 -1.47519
lowerback 6.4132 1.77295 -1.89235
upperback -0.0241725 2.23311 0.354667
thorax -3.70729 1.14646 1.21438
lowerneck -16.1747 -3.46997 -2.14967
upperneck 13.8637 -5.14664 5.3811
head 7.10589 -2.09692 1.54281
rclavicle -2.15433e-014 7.7526e-015
rhumerus -42.9987 29.3093 -87.104
rradius 99.1527
rwrist -12.8964
rhand -18.7671 -29.3011
rfingers 7.12502
rthumb 7.52991 -59.147
lclavicle -2.15433e-014 7.7526e-015
lhumerus -36.5706 -35.8848 88.3065
lradius 95.9101
lwrist 36.1658
lhand -24.4738 -40.2335
lfingers 7.12502
lthumb 2.01975 -10.2633
rfemur 0 0 0
rtibia 0
rfoot 0 0
rtoes 0
lfemur -5.16724 -4.44047 -13.0982
ltibia 21.4696
lfoot -24.0228 17.1722
ltoes -54.0576
